{"asset":{"version":"2.0","generator":"babylon.js glTF exporter for 3dsmax 2019 v1.5.0","extensions":{"ASOBO_normal_map_convention":{"tangent_space_convention":"DirectX"}}},"extensionsUsed":["ASOBO_normal_map_convention","ASOBO_macro_light","ASOBO_tags","ASOBO_gizmo_object","ASOBO_material_day_night_switch"],"scene":0,"scenes":[{"nodes":[0],"extensions":{}}],"nodes":[{"children":[1,2],"mesh":0,"translation":[0.0,0.0,0.0],"rotation":[0.0,0.0,0.0,1.0],"scale":[1.0,1.0,1.0],"name":"Light_Sample_LOD0"},{"translation":[0.0,0.0,0.0],"rotation":[0.0,0.0,0.0,1.0],"scale":[0.99999994,1.0,1.0],"name":"DURL"},{"translation":[1.03197885,12.1077671,-0.0004863739],"rotation":[0.707106769,0.0,0.0,0.707106769],"scale":[0.9999999,1.0,1.0],"name":"MacroLightSpot019","extensions":{"ASOBO_macro_light":{"color":[1.0,0.8808786,0.312363118],"intensity":50.0,"cone_angle":150.0,"has_simmetry":false,"flash_frequency":0.0,"flash_duration":0.0,"flash_phase":0.0,"rotation_speed":0.0,"day_night_cycle":true}}}],"meshes":[{"primitives":[{"attributes":{"POSITION":1,"NORMAL":2,"TEXCOORD_0":3},"indices":0,"mode":4,"material":0},{"attributes":{"POSITION":5,"NORMAL":6,"TEXCOORD_0":7},"indices":4,"mode":4,"material":1}],"name":"Light_Sample_LOD0","extensions":{"ASOBO_gizmo_object":{"gizmo_objects":[{"translation":[0.0,6.08148432,0.0],"type":"box","params":{"width":0.5,"height":12.1629686,"length":0.5},"extensions":{"ASOBO_tags":{"tags":["Collision"]}}}]}}}],"accessors":[{"bufferView":0,"componentType":5123,"count":198,"type":"SCALAR","name":"accessorIndices"},{"bufferView":1,"componentType":5126,"count":198,"max":[0.195847988,12.1271353,0.129999757],"min":[-0.130000055,0.0,-0.1300003],"type":"VEC3","name":"accessorPositions"},{"bufferView":1,"byteOffset":2376,"componentType":5126,"count":198,"type":"VEC3","name":"accessorNormals"},{"bufferView":2,"componentType":5126,"count":198,"type":"VEC2","name":"accessorUVs"},{"bufferView":0,"byteOffset":396,"componentType":5123,"count":1152,"type":"SCALAR","name":"accessorIndices"},{"bufferView":1,"byteOffset":4752,"componentType":5126,"count":1152,"max":[1.1916132,12.3986673,0.26151824],"min":[0.131450891,12.110158,-0.262491],"type":"VEC3","name":"accessorPositions"},{"bufferView":1,"byteOffset":18576,"componentType":5126,"count":1152,"type":"VEC3","name":"accessorNormals"},{"bufferView":2,"byteOffset":1584,"componentType":5126,"count":1152,"type":"VEC2","name":"accessorUVs"},{"bufferView":3,"componentType":5126,"count":2,"max":[3.33333325],"min":[0.0],"type":"SCALAR","name":"accessorAnimationInput"},{"bufferView":4,"componentType":5126,"count":2,"type":"VEC3","name":"accessorAnimationScales"},{"bufferView":3,"byteOffset":8,"componentType":5126,"count":2,"max":[3.33333325],"min":[0.0],"type":"SCALAR","name":"accessorAnimationInput"},{"bufferView":4,"byteOffset":24,"componentType":5126,"count":2,"type":"VEC3","name":"accessorAnimationScales"},{"bufferView":3,"byteOffset":16,"componentType":5126,"count":101,"max":[3.33333325],"min":[0.0],"type":"SCALAR","name":"accessorAnimationInput"},{"bufferView":5,"componentType":5126,"count":101,"type":"VEC4","name":"accessorAnimationRotations"}],"bufferViews":[{"buffer":0,"byteLength":2700,"name":"bufferViewScalar"},{"buffer":0,"byteOffset":2700,"byteLength":32400,"byteStride":12,"name":"bufferViewFloatVec3"},{"buffer":0,"byteOffset":35100,"byteLength":10800,"byteStride":8,"name":"bufferViewFloatVec2"},{"buffer":0,"byteOffset":45900,"byteLength":420,"name":"bufferViewAnimationFloatScalar"},{"buffer":0,"byteOffset":46320,"byteLength":48,"name":"bufferViewAnimationFloatVec3"},{"buffer":0,"byteOffset":46368,"byteLength":1616,"name":"bufferViewAnimationFloatVec4"}],"buffers":[{"uri":"Light_Sample_LOD0.bin","byteLength":47984}],"materials":[{"pbrMetallicRoughness":{"baseColorFactor":[0.604316533,0.604316533,0.604316533,1.0],"baseColorTexture":{"index":0},"metallicRoughnessTexture":{"index":1}},"normalTexture":{"index":2},"occlusionTexture":{"index":1},"name":"Metal_galvanized"},{"pbrMetallicRoughness":{"baseColorFactor":[0.5755396,0.5755396,0.5755396,1.0],"baseColorTexture":{"index":3},"metallicRoughnessTexture":{"index":4}},"normalTexture":{"index":5},"occlusionTexture":{"index":4},"emissiveTexture":{"index":6},"emissiveFactor":[0.988235354,0.988235354,0.988235354],"name":"Light_bulbs","extensions":{"ASOBO_material_day_night_switch":{}}}],"textures":[{"source":0,"name":"Tile_Metal_Galva_Albedo"},{"source":1,"name":"Tile_Metal_Galva_COMP"},{"source":2,"name":"Tile_Metal_Galva_Normal"},{"source":3,"name":"Airport_Lights_Albedo"},{"source":4,"name":"Airport_Lights_COMP"},{"source":5,"name":"Airport_Lights_Normal"},{"source":6,"name":"Airport_Lights_Emissive"}],"images":[{"uri":"Tile_Metal_Galva_Albedo.png"},{"uri":"Tile_Metal_Galva_COMP.png"},{"uri":"Tile_Metal_Galva_Normal.png"},{"uri":"Airport_Lights_Albedo.png"},{"uri":"Airport_Lights_COMP.png"},{"uri":"Airport_Lights_Normal.png"},{"uri":"Airport_Lights_Emissive.png"}],"animations":[{"channels":[{"sampler":0,"target":{"node":0,"path":"scale"}},{"sampler":1,"target":{"node":1,"path":"scale"}},{"sampler":2,"target":{"node":2,"path":"rotation"}}],"samplers":[{"input":8,"interpolation":"LINEAR","output":9},{"input":10,"interpolation":"LINEAR","output":11},{"input":12,"interpolation":"LINEAR","output":13}],"name":"All Animations"}]}